<svg width="25" height="25" viewBox="0 0 25 25" fill="none" xmlns="http://www.w3.org/2000/svg">
<path d="M11.2505 4.26146H7.05049C5.37033 4.26146 4.53025 4.26146 3.88852 4.58844C3.32403 4.87606 2.86509 5.335 2.57747 5.89949C2.25049 6.54122 2.25049 7.3813 2.25049 9.06146V17.4615C2.25049 19.1416 2.25049 19.9817 2.57747 20.6234C2.86509 21.1879 3.32403 21.6469 3.88852 21.9345C4.53025 22.2615 5.37033 22.2615 7.05049 22.2615H15.4505C17.1306 22.2615 17.9707 22.2615 18.6125 21.9345C19.1769 21.6469 19.6359 21.1879 19.9235 20.6234C20.2505 19.9817 20.2505 19.1416 20.2505 17.4615V13.2615M8.25046 16.2615H9.925C10.4142 16.2615 10.6588 16.2615 10.889 16.2062C11.093 16.1572 11.2881 16.0764 11.4671 15.9667C11.6689 15.8431 11.8418 15.6701 12.1877 15.3242L21.7505 5.76146C22.5789 4.93303 22.5789 3.58988 21.7505 2.76146C20.9221 1.93303 19.5789 1.93303 18.7505 2.76146L9.18772 12.3242C8.84182 12.6701 8.66887 12.8431 8.54518 13.0449C8.43552 13.2238 8.35472 13.4189 8.30572 13.623C8.25046 13.8532 8.25046 14.0978 8.25046 14.5869V16.2615Z" stroke="#243831" stroke-width="1.5" stroke-linecap="round" stroke-linejoin="round"/>
</svg>
