<svg width="25" height="25" viewBox="0 0 25 25" fill="none" xmlns="http://www.w3.org/2000/svg">
<path d="M8.25049 17.2615H16.2505M11.2682 3.02547L4.48588 8.3006C4.03251 8.65322 3.80583 8.82953 3.64252 9.05033C3.49785 9.24592 3.39009 9.46626 3.32452 9.70053C3.25049 9.96499 3.25049 10.2522 3.25049 10.8265V18.0615C3.25049 19.1816 3.25049 19.7416 3.46848 20.1694C3.66022 20.5458 3.96618 20.8517 4.34251 21.0435C4.77033 21.2615 5.33038 21.2615 6.45049 21.2615H18.0505C19.1706 21.2615 19.7306 21.2615 20.1585 21.0435C20.5348 20.8517 20.8408 20.5458 21.0325 20.1694C21.2505 19.7416 21.2505 19.1816 21.2505 18.0615V10.8265C21.2505 10.2522 21.2505 9.96499 21.1765 9.70053C21.1109 9.46626 21.0031 9.24592 20.8585 9.05033C20.6952 8.82953 20.4685 8.65322 20.0151 8.3006L13.2328 3.02547C12.8815 2.75222 12.7058 2.61559 12.5118 2.56308C12.3407 2.51674 12.1603 2.51674 11.9891 2.56308C11.7952 2.61559 11.6195 2.75222 11.2682 3.02547Z" stroke="#243831" stroke-width="1.5" stroke-linecap="round" stroke-linejoin="round"/>
</svg>
